<?xml version="1.0" encoding="UTF-8"?>
<svg width="24px" height="24px" viewBox="0 0 24 24" version="1.1" xmlns="http://www.w3.org/2000/svg" xmlns:xlink="http://www.w3.org/1999/xlink">
    <title>Artboard</title>
    <g id="Artboard" stroke="none" stroke-width="1" fill="none" fill-rule="evenodd">
        <path d="M19.5957575,5 L19.8348212,5.00832886 C20.3069763,5.04157184 20.7422664,5.17389191 21.122142,5.3974664 C21.6077333,5.683234 21.9811847,6.10253177 22.2174528,6.63324324 C22.389252,7.0191833 22.4835194,7.45512734 22.493355,7.9302295 C22.5117161,8.82415924 22.4918191,9.77810667 22.436237,10.7604379 C22.377301,11.7996032 22.2841649,12.8453059 22.1629284,13.8459147 C21.9917991,15.2584724 21.8087685,16.0918773 21.4645906,16.8991663 C21.0867704,17.7855086 20.5247147,18.5733544 19.58011,19.5344104 C18.4673096,20.6667093 16.9353815,21.9104642 15.5311032,22.753906 C14.1916741,23.5584474 12.975973,24 11.9871578,24 C10.9984191,24 9.78266744,23.5584331 8.44321622,22.7539083 C7.03899594,21.9104765 5.50709057,20.66674 4.39421361,19.5344186 C3.44967942,18.5733877 2.88765269,17.785539 2.50982908,16.8991888 C2.27149259,16.3402235 2.11040938,15.7687231 1.97708942,15.0013228 L1.97708942,15.0013228 L1.89177941,14.4586882 C1.8643517,14.2667944 1.83775191,14.0632143 1.81143694,13.8459356 C1.73225308,13.1926688 1.66511526,12.5280189 1.61186935,11.8665815 C1.56323127,11.261939 1.52574773,10.6158216 1.500513,9.9374249 C1.48484352,9.48258233 1.83010036,9.10306436 2.26719287,9.08727581 C2.70387867,9.07156394 3.07371017,9.42447261 3.08936969,9.87989328 C3.10162874,10.2086513 3.1202939,10.5633052 3.14511496,10.9417381 L3.14511496,10.9417381 L3.20289086,11.7296818 C3.25409572,12.3655877 3.31920563,13.0090009 3.39644695,13.6455982 L3.39644695,13.6455982 L3.47199107,14.224262 L3.55069572,14.7276481 C3.65927149,15.3541544 3.78545073,15.8129788 3.965935,16.236355 C4.25947051,16.9248497 4.7269551,17.5644917 5.51046098,18.3617894 C6.54593933,19.4150558 7.94962915,20.5569569 9.24052837,21.3322983 C10.3233367,21.9826299 11.2520444,22.346892 11.9871578,22.346892 C12.7222876,22.346892 13.6510822,21.9826008 14.7337889,21.3322972 C16.0249018,20.5568015 17.4290209,19.4145833 18.4637786,18.3618187 C19.2475299,17.5644222 19.7150406,16.9247606 20.0083682,16.2362732 C20.2339352,15.7072338 20.3746376,15.122907 20.5023103,14.2243998 L20.5023103,14.2243998 L20.5779251,13.6455226 C20.7010971,12.629885 20.7926387,11.6214879 20.8464813,10.6718133 C20.90142,9.70125166 20.9217539,8.787557 20.9048105,7.96147136 C20.8999131,7.72239973 20.8570772,7.50721835 20.7747727,7.32254509 C20.6804127,7.11039422 20.5301346,6.9384785 20.3376539,6.8250816 C20.1196758,6.69670088 19.8503155,6.63787264 19.5490979,6.64441905 C19.1927087,6.65206191 18.8044875,6.75266267 18.4019002,6.94076728 C17.9527874,7.15058063 17.4301156,7.42910075 16.8537604,7.7617437 C16.2432154,8.11415933 15.6180213,8.50337566 15.0418606,8.88410878 C14.674551,9.12563031 14.1855628,9.01638352 13.94743,8.63634209 C13.706171,8.25139405 13.8155557,7.73778519 14.1885865,7.49251183 C14.799214,7.08878882 15.4546909,6.68032411 16.081891,6.31838346 C16.6581596,5.98572219 17.2191038,5.68945841 17.7467126,5.44300537 C18.3518594,5.16025697 18.9535776,5.01309662 19.5195959,5.00086897 L19.5195959,5.00086897 L19.5957575,5 Z M11.7420451,0 C12.5352459,0 13.5281541,0.193809318 14.6373253,0.550219296 C15.7758482,0.91597009 17.0100796,1.44748577 18.0716311,2.01277471 C18.454535,2.21513587 18.6124621,2.71769315 18.4140893,3.12991203 C18.22196,3.52925077 17.7720739,3.68455194 17.4034472,3.48972297 C16.4076603,2.9594966 15.2600411,2.46440559 14.2019526,2.12441017 C13.2505971,1.8187419 12.4129578,1.65013178 11.7420451,1.65013178 C10.4353237,1.65013178 8.07721487,2.23812736 6.26799496,3.02557748 C6.18307365,3.06253394 6.10074901,3.09865242 6.02099019,3.13399342 L6.02099019,3.13399342 L5.57298022,3.33719377 L5.18506875,3.52463915 C4.40863093,3.91580061 4.04495734,4.21647317 4.02625708,4.55959696 C4.01006954,4.857201 4.10826301,5.09489866 4.4377646,5.37459144 L4.4377646,5.37459144 L4.60669228,5.50703338 C4.6687601,5.55242203 4.73672843,5.59917571 4.81102306,5.64766547 L4.81102306,5.64766547 L5.05331158,5.79871404 L5.33611244,5.96240544 L5.66198028,6.14096601 L6.23712084,6.44155669 L8.24510854,7.44702349 L8.83577991,7.75419307 L9.40314739,8.06666402 C10.6816248,8.79582595 11.3934496,9.4097669 11.8699996,10.2080087 C12.3942935,11.086101 12.5995159,12.1277429 12.5995159,13.8340554 L12.5995159,13.8340554 L12.5995159,18.1749341 L12.5924332,18.2879411 C12.5410839,18.6938076 12.2170592,19 11.83476,19 C11.4176781,19 11.0699118,18.6355778 11.0699118,18.1749341 L11.0699118,18.1749341 L11.0679105,13.5536825 C11.0504066,12.3742006 10.9160333,11.6485271 10.5843324,11.093047 C10.2267047,10.4940656 9.60423864,10.01364 8.43497412,9.37181365 L8.43497412,9.37181365 L7.91879196,9.09777895 L6.21052,8.24103012 L5.66024323,7.95511678 L5.16094631,7.68381707 L4.71086117,7.42489368 C3.00658681,6.41096964 2.44096229,5.64038145 2.50478975,4.46878054 C2.5594421,3.46594076 3.62703906,2.45210416 5.43514125,1.61726039 L5.43514125,1.61726039 L5.69843858,1.49923994 L6.03193859,1.35872228 C7.95365514,0.57438526 10.3862541,0 11.7420451,0 Z" id="Combined-Shape" fill="#FFFFFF" fill-rule="nonzero"></path>
    </g>
</svg>