<?xml version="1.0" encoding="utf-8"?>
<!-- Generator: Adobe Illustrator 15.0.0, SVG Export Plug-In . SVG Version: 6.00 Build 0)  -->
<!DOCTYPE svg PUBLIC "-//W3C//DTD SVG 1.0//EN" "http://www.w3.org/TR/2001/REC-SVG-20010904/DTD/svg10.dtd">
<svg version="1.0" id="Layer_2" xmlns="http://www.w3.org/2000/svg" xmlns:xlink="http://www.w3.org/1999/xlink" x="0px" y="0px"
	 width="1000px" height="1000px" viewBox="0 0 1000 1000" enable-background="new 0 0 1000 1000" xml:space="preserve">
<g>
	<path fill="#EDEDED" d="M14.41,410.264c-3.564,43.438,5.864,107.601,7.575,135.862c5.576,92.086,25.081,135.159,41.663,159.639
		c56.496,83.405,51.761,67.93,97.211,107.556c45.45,39.628,131.299,100.763,166.648,121.144
		c35.35,20.38,90.666,47.402,171.347,48.685c39.49,0.629,67.41,1.02,110.19-21.513c42.779-22.529,83.324-44.155,137.611-78.119
		c54.288-33.967,123.724-91.695,160.336-139.258c40.094-52.088,49.856-71.979,54.289-105.294
		c5.97-44.912,25.662-147.224,22.723-235.495c-2.808-84.349,0-88.311-20.198-131.333c-18.851-40.143-31.563-40.758-70.701-56.609
		c-39.137-15.851-87.938-13.43-128.773,2.264c-40.837,15.695-174.225,75.857-196.949,97.367
		c-22.724,21.512-14.184,55.151,8.838,71.328c14.42,10.133,36.065,13.129,48.963,9.395c47.881-13.858,34.587-13.435,72.962-32.553
		c38.375-19.118,70.125-37.449,91.168-43.11c21.039-5.661,37.019-15.249,53.433-10.72c16.411,4.53,25.11,21.512,25.11,38.495
		c0,16.982-0.498,66.06-2.525,84.913c-2.024,18.853-4.912,135.861-22.585,190.207c-6.452,19.833-22.864,52.078-40.539,76.988
		c-17.676,24.908-89.638,76.987-108.574,92.838c-18.938,15.852-147.61,94.35-202,90.576c-18.328-1.271-58.252-18.719-80.39-27.905
		c-65.532-27.194-143.071-95.503-170.846-118.148c-27.775-22.643-79.537-105.292-88.374-133.597
		c-8.838-28.304-15.15-121.143-23.988-199.256c-3.45-30.499-26.583-38.386-56.812-40.766
		C43.577,366.331,17.57,371.755,14.41,410.264z"/>
	<path fill="#EDEDED" d="M437.766,760.108c0,0-2.536-244.546-10.101-259.27c-7.564-14.725-11.362-29.438-40.399-52.08
		c-29.038-22.644-223.02-105.047-286.585-143.788c-37.772-23.02-45.45-47.552-54.288-73.591
		c-8.837-26.041,5.051-52.081,15.151-67.932c10.1-15.85,68.375-54.764,92.162-66.798C252.18,46.833,444.057,14,483.215,14
		c106.582,0,277.789,66.428,303.53,79.253c45.45,22.644,45.45,55.854,34.276,67.931c-18.974,20.508-28.496,32.833-63.846,31.701
		c-35.351-1.132-139.882-45.696-169.175-58.874c-33.555-15.095-52.075-21.133-104.867-19.248
		c-30.381,1.087-115.184,16.382-129.956,21.513c-17.39,6.04-191.899,60.006-195.687,70.195c-2.503,6.738,4.07,18.191,35.351,33.966
		c38.486,19.407,60.077,24.907,95.949,43.023c35.873,18.114,135.32,66.183,159.075,80.384c26.512,15.85,65.647,56.61,79.535,96.236
		c13.887,39.626,16.413,140.391,16.413,140.391v163.034c0,0-12.626,32.445-49.237,31.701
		C455.963,794.42,437.766,760.108,437.766,760.108z"/>
</g>
</svg>
